<svg xmlns="http://www.w3.org/2000/svg" xmlns:xlink="http://www.w3.org/1999/xlink" width="500" zoomAndPan="magnify" viewBox="0 0 375 374.999991" height="500" preserveAspectRatio="xMidYMid meet" version="1.0"><defs><clipPath id="1b6c2a9f8e"><path d="M 106 111.824219 L 340 111.824219 L 340 262 L 106 262 Z M 106 111.824219 " clip-rule="nonzero"/></clipPath><clipPath id="503d34876b"><path d="M 101 199 L 147 199 L 147 266.324219 L 101 266.324219 Z M 101 199 " clip-rule="nonzero"/></clipPath></defs><g clip-path="url(#1b6c2a9f8e)"><path fill="#373435" d="M 118.902344 187.433594 L 151.582031 187.433594 L 206.53125 118.714844 L 207.4375 117.585938 L 241.589844 117.585938 C 242.027344 116.398438 242.714844 115.300781 243.625 114.425781 C 245.1875 112.859375 247.375 111.855469 249.785156 111.855469 C 252.191406 111.855469 254.382812 112.828125 255.945312 114.425781 C 257.507812 115.988281 258.511719 118.179688 258.511719 120.589844 C 258.511719 123.003906 257.539062 125.195312 255.945312 126.757812 C 254.382812 128.324219 252.191406 129.328125 249.785156 129.328125 C 247.375 129.328125 245.1875 128.355469 243.625 126.757812 C 242.746094 125.882812 242.027344 124.785156 241.589844 123.597656 L 210.347656 123.597656 L 159.277344 187.464844 L 213.726562 187.464844 L 249.160156 142.851562 L 250.066406 141.722656 L 282.652344 141.722656 C 283.089844 140.535156 283.78125 139.4375 284.6875 138.5625 C 286.25 136.996094 288.4375 135.996094 290.847656 135.996094 C 293.253906 135.996094 295.445312 136.964844 297.007812 138.5625 C 298.570312 140.128906 299.574219 142.320312 299.574219 144.730469 C 299.574219 147.140625 298.601562 149.332031 297.007812 150.898438 C 295.445312 152.460938 293.253906 153.464844 290.847656 153.464844 C 288.4375 153.464844 286.25 152.492188 284.6875 150.898438 C 283.8125 150.019531 283.089844 148.925781 282.652344 147.734375 L 252.941406 147.734375 L 221.386719 187.496094 L 275.804688 187.496094 C 276.242188 186.304688 276.929688 185.210938 277.835938 184.332031 C 279.402344 182.765625 281.589844 181.765625 284 181.765625 C 286.40625 181.765625 288.597656 182.734375 290.160156 184.332031 C 291.722656 185.898438 292.722656 188.089844 292.722656 190.5 C 292.722656 192.910156 291.753906 195.101562 290.160156 196.667969 C 288.597656 198.234375 286.40625 199.234375 284 199.234375 C 281.589844 199.234375 279.402344 198.265625 277.835938 196.667969 C 276.960938 195.792969 276.242188 194.695312 275.804688 193.503906 L 247.46875 193.503906 L 291.066406 249.671875 L 322.308594 249.671875 C 322.746094 248.480469 323.433594 247.386719 324.34375 246.507812 C 325.90625 244.941406 328.09375 243.941406 330.503906 243.941406 C 332.910156 243.941406 335.101562 244.910156 336.664062 246.507812 C 338.226562 248.074219 339.230469 250.265625 339.230469 252.675781 C 339.230469 255.085938 338.257812 257.277344 336.664062 258.84375 C 335.101562 260.410156 332.910156 261.410156 330.503906 261.410156 C 328.09375 261.410156 325.90625 260.441406 324.34375 258.84375 C 323.464844 257.964844 322.746094 256.871094 322.308594 255.679688 L 288.1875 255.679688 L 287.28125 254.554688 L 239.808594 193.535156 L 171.535156 193.535156 L 203.089844 233.296875 L 234.335938 233.296875 C 234.773438 232.105469 235.460938 231.011719 236.367188 230.136719 C 237.929688 228.570312 240.121094 227.566406 242.527344 227.566406 C 244.9375 227.566406 247.125 228.539062 248.691406 230.136719 C 250.253906 231.699219 251.253906 233.890625 251.253906 236.300781 C 251.253906 238.714844 250.285156 240.90625 248.691406 242.46875 C 247.125 244.035156 244.9375 245.035156 242.527344 245.035156 C 240.121094 245.035156 237.929688 244.066406 236.367188 242.46875 C 235.492188 241.59375 234.773438 240.496094 234.335938 239.308594 L 200.214844 239.308594 L 199.308594 238.179688 L 163.875 193.566406 L 106.546875 193.566406 L 106.546875 187.558594 L 118.871094 187.558594 Z M 282.027344 188.527344 C 281.527344 189.027344 281.246094 189.6875 281.246094 190.4375 C 281.246094 191.1875 281.558594 191.878906 282.027344 192.347656 C 282.527344 192.847656 283.183594 193.128906 283.9375 193.128906 C 284.6875 193.128906 285.375 192.816406 285.84375 192.347656 C 286.34375 191.847656 286.625 191.1875 286.625 190.4375 C 286.625 189.6875 286.3125 188.996094 285.84375 188.527344 C 285.34375 188.027344 284.6875 187.746094 283.9375 187.746094 C 283.183594 187.746094 282.496094 188.058594 282.027344 188.527344 Z M 328.5625 250.671875 C 328.0625 251.171875 327.78125 251.832031 327.78125 252.582031 C 327.78125 253.332031 328.09375 254.023438 328.5625 254.492188 C 329.066406 254.992188 329.722656 255.273438 330.472656 255.273438 C 331.222656 255.273438 331.910156 254.960938 332.378906 254.492188 C 332.878906 253.992188 333.160156 253.332031 333.160156 252.582031 C 333.160156 251.832031 332.847656 251.140625 332.378906 250.671875 C 331.878906 250.171875 331.222656 249.890625 330.472656 249.890625 C 329.722656 249.890625 329.035156 250.203125 328.5625 250.671875 Z M 288.910156 142.757812 C 288.40625 143.257812 288.125 143.914062 288.125 144.667969 C 288.125 145.417969 288.4375 146.105469 288.910156 146.578125 C 289.410156 147.078125 290.066406 147.359375 290.816406 147.359375 C 291.566406 147.359375 292.253906 147.046875 292.722656 146.578125 C 293.222656 146.074219 293.503906 145.417969 293.503906 144.667969 C 293.503906 143.914062 293.191406 143.226562 292.722656 142.757812 C 292.222656 142.257812 291.566406 141.972656 290.816406 141.972656 C 290.066406 141.972656 289.378906 142.289062 288.910156 142.757812 Z M 247.8125 118.652344 C 247.3125 119.152344 247.03125 119.808594 247.03125 120.558594 C 247.03125 121.3125 247.34375 122 247.8125 122.46875 C 248.3125 122.972656 248.972656 123.253906 249.722656 123.253906 C 250.472656 123.253906 251.160156 122.941406 251.628906 122.46875 C 252.128906 121.96875 252.410156 121.3125 252.410156 120.558594 C 252.410156 119.808594 252.097656 119.121094 251.628906 118.652344 C 251.128906 118.148438 250.472656 117.867188 249.722656 117.867188 C 248.972656 117.867188 248.28125 118.179688 247.8125 118.652344 Z M 240.621094 234.296875 C 240.121094 234.800781 239.839844 235.457031 239.839844 236.207031 C 239.839844 236.960938 240.152344 237.648438 240.621094 238.117188 C 241.121094 238.617188 241.777344 238.902344 242.527344 238.902344 C 243.277344 238.902344 243.96875 238.585938 244.4375 238.117188 C 244.9375 237.617188 245.21875 236.960938 245.21875 236.207031 C 245.21875 235.457031 244.90625 234.769531 244.4375 234.296875 C 243.9375 233.796875 243.277344 233.515625 242.527344 233.515625 C 241.777344 233.515625 241.089844 233.828125 240.621094 234.296875 Z M 240.621094 234.296875 " fill-opacity="1" fill-rule="evenodd"/></g><path fill="#538641" d="M 54.132812 216.921875 C 35.304688 212.980469 23.453125 214.136719 18.542969 220.429688 C 34.960938 172.5625 57.667969 152.367188 86.65625 159.914062 C 99.855469 167.113281 103.421875 174.535156 97.351562 182.140625 C 90.972656 190.15625 77.085938 190.53125 67.769531 189.34375 C 54.320312 187.558594 45.34375 190.71875 40.871094 198.828125 C 58.355469 189.875 71.113281 199.640625 81.308594 197.792969 C 86.1875 196.917969 98.886719 186.710938 99.699219 198.140625 C 101.230469 219.960938 69.707031 221.902344 54.164062 216.953125 Z M 54.132812 216.921875 " fill-opacity="1" fill-rule="evenodd"/><path fill="#83cb13" d="M 140.355469 139.53125 C 134.164062 126.695312 132.882812 117.929688 136.507812 113.265625 C 105.015625 133.648438 94.570312 153.589844 105.171875 173.125 C 112.710938 181.359375 118.683594 182.609375 123.0625 176.851562 C 127.6875 170.839844 125.46875 160.757812 122.96875 154.246094 C 119.277344 144.886719 119.964844 137.84375 124.96875 133.175781 C 121.652344 147.359375 130.941406 154.839844 131.441406 162.480469 C 131.691406 166.144531 126.625 177.132812 134.976562 175.660156 C 150.957031 172.875 146.703125 149.800781 140.355469 139.5 Z M 140.355469 139.53125 " fill-opacity="1" fill-rule="evenodd"/><g clip-path="url(#503d34876b)"><path fill="#83cb13" d="M 106.859375 240.058594 C 113.054688 252.894531 114.335938 261.660156 110.707031 266.324219 C 142.199219 245.945312 152.644531 226.003906 142.042969 206.464844 C 134.507812 198.234375 128.535156 196.980469 124.15625 202.742188 C 119.527344 208.753906 121.746094 218.832031 124.25 225.34375 C 127.941406 234.707031 127.25 241.75 122.246094 246.414062 C 125.5625 232.230469 116.273438 224.75 115.773438 217.109375 C 115.523438 213.449219 120.589844 202.460938 112.238281 203.929688 C 96.257812 206.71875 100.511719 229.789062 106.859375 240.089844 Z M 106.859375 240.058594 " fill-opacity="1" fill-rule="evenodd"/></g></svg>