<svg xmlns="http://www.w3.org/2000/svg" xmlns:xlink="http://www.w3.org/1999/xlink" width="500" zoomAndPan="magnify" viewBox="0 0 375 374.999991" height="500" preserveAspectRatio="xMidYMid meet" version="1.0"><defs><clipPath id="e1bf8a5a75"><path d="M 106 111.824219 L 340 111.824219 L 340 262 L 106 262 Z M 106 111.824219 " clip-rule="nonzero"/></clipPath><clipPath id="f08fe5fea8"><path d="M 101 199 L 147 199 L 147 266.324219 L 101 266.324219 Z M 101 199 " clip-rule="nonzero"/></clipPath></defs><g clip-path="url(#e1bf8a5a75)"><path fill="#ffffff" d="M 118.9375 187.484375 L 151.632812 187.484375 L 206.601562 118.8125 L 207.507812 117.6875 L 241.671875 117.6875 C 242.109375 116.5 242.796875 115.402344 243.707031 114.527344 C 245.269531 112.964844 247.460938 111.960938 249.867188 111.960938 C 252.277344 111.960938 254.46875 112.933594 256.03125 114.527344 C 257.597656 116.09375 258.597656 118.28125 258.597656 120.691406 C 258.597656 123.101562 257.628906 125.289062 256.03125 126.855469 C 254.46875 128.417969 252.277344 129.417969 249.867188 129.417969 C 247.460938 129.417969 245.269531 128.449219 243.707031 126.855469 C 242.828125 125.976562 242.109375 124.882812 241.671875 123.695312 L 210.417969 123.695312 L 159.328125 187.515625 L 213.796875 187.515625 L 249.242188 142.933594 L 250.148438 141.808594 L 282.75 141.808594 C 283.1875 140.621094 283.875 139.523438 284.785156 138.648438 C 286.347656 137.085938 288.539062 136.082031 290.945312 136.082031 C 293.355469 136.082031 295.546875 137.054688 297.109375 138.648438 C 298.675781 140.214844 299.675781 142.402344 299.675781 144.8125 C 299.675781 147.222656 298.707031 149.410156 297.109375 150.976562 C 295.546875 152.539062 293.355469 153.542969 290.945312 153.542969 C 288.539062 153.542969 286.347656 152.570312 284.785156 150.976562 C 283.90625 150.101562 283.1875 149.003906 282.75 147.816406 L 253.027344 147.816406 L 221.460938 187.546875 L 275.898438 187.546875 C 276.335938 186.359375 277.023438 185.265625 277.933594 184.390625 C 279.496094 182.824219 281.6875 181.824219 284.09375 181.824219 C 286.503906 181.824219 288.695312 182.792969 290.257812 184.390625 C 291.824219 185.953125 292.824219 188.144531 292.824219 190.550781 C 292.824219 192.960938 291.855469 195.152344 290.257812 196.714844 C 288.695312 198.28125 286.503906 199.28125 284.09375 199.28125 C 281.6875 199.28125 279.496094 198.3125 277.933594 196.714844 C 277.054688 195.839844 276.335938 194.746094 275.898438 193.554688 L 247.554688 193.554688 L 291.164062 249.683594 L 322.417969 249.683594 C 322.859375 248.492188 323.546875 247.398438 324.453125 246.523438 C 326.019531 244.957031 328.207031 243.957031 330.617188 243.957031 C 333.027344 243.957031 335.214844 244.925781 336.78125 246.523438 C 338.34375 248.085938 339.34375 250.277344 339.34375 252.683594 C 339.34375 255.09375 338.375 257.285156 336.78125 258.847656 C 335.214844 260.414062 333.027344 261.414062 330.617188 261.414062 C 328.207031 261.414062 326.019531 260.445312 324.453125 258.847656 C 323.578125 257.972656 322.859375 256.878906 322.417969 255.6875 L 288.289062 255.6875 L 287.378906 254.5625 L 239.886719 193.585938 L 171.59375 193.585938 L 203.160156 233.320312 L 234.414062 233.320312 C 234.851562 232.128906 235.539062 231.035156 236.445312 230.160156 C 238.011719 228.59375 240.203125 227.59375 242.609375 227.59375 C 245.019531 227.59375 247.210938 228.5625 248.773438 230.160156 C 250.335938 231.722656 251.339844 233.914062 251.339844 236.324219 C 251.339844 238.730469 250.367188 240.921875 248.773438 242.484375 C 247.210938 244.050781 245.019531 245.050781 242.609375 245.050781 C 240.203125 245.050781 238.011719 244.082031 236.445312 242.484375 C 235.570312 241.609375 234.851562 240.515625 234.414062 239.328125 L 200.28125 239.328125 L 199.375 238.199219 L 163.925781 193.617188 L 106.582031 193.617188 L 106.582031 187.609375 L 118.90625 187.609375 Z M 282.125 188.582031 C 281.625 189.082031 281.34375 189.738281 281.34375 190.488281 C 281.34375 191.242188 281.65625 191.929688 282.125 192.398438 C 282.625 192.898438 283.28125 193.179688 284.03125 193.179688 C 284.785156 193.179688 285.472656 192.867188 285.941406 192.398438 C 286.441406 191.898438 286.722656 191.242188 286.722656 190.488281 C 286.722656 189.738281 286.410156 189.050781 285.941406 188.582031 C 285.441406 188.082031 284.785156 187.796875 284.03125 187.796875 C 283.28125 187.796875 282.59375 188.113281 282.125 188.582031 Z M 328.675781 250.683594 C 328.175781 251.183594 327.894531 251.839844 327.894531 252.589844 C 327.894531 253.34375 328.207031 254.03125 328.675781 254.5 C 329.175781 255 329.835938 255.28125 330.585938 255.28125 C 331.335938 255.28125 332.023438 254.96875 332.492188 254.5 C 332.996094 254 333.277344 253.34375 333.277344 252.589844 C 333.277344 251.839844 332.964844 251.152344 332.492188 250.683594 C 331.992188 250.183594 331.335938 249.902344 330.585938 249.902344 C 329.835938 249.902344 329.144531 250.214844 328.675781 250.683594 Z M 289.007812 142.839844 C 288.507812 143.34375 288.226562 144 288.226562 144.75 C 288.226562 145.5 288.539062 146.1875 289.007812 146.660156 C 289.507812 147.160156 290.164062 147.441406 290.914062 147.441406 C 291.667969 147.441406 292.355469 147.128906 292.824219 146.660156 C 293.324219 146.15625 293.605469 145.5 293.605469 144.75 C 293.605469 144 293.292969 143.3125 292.824219 142.839844 C 292.324219 142.339844 291.667969 142.058594 290.914062 142.058594 C 290.164062 142.058594 289.476562 142.371094 289.007812 142.839844 Z M 247.898438 118.75 C 247.398438 119.253906 247.117188 119.910156 247.117188 120.660156 C 247.117188 121.410156 247.429688 122.097656 247.898438 122.566406 C 248.398438 123.070312 249.054688 123.351562 249.804688 123.351562 C 250.558594 123.351562 251.246094 123.039062 251.714844 122.566406 C 252.214844 122.066406 252.496094 121.410156 252.496094 120.660156 C 252.496094 119.910156 252.183594 119.222656 251.714844 118.75 C 251.214844 118.25 250.558594 117.96875 249.804688 117.96875 C 249.054688 117.96875 248.367188 118.28125 247.898438 118.75 Z M 240.703125 234.320312 C 240.203125 234.820312 239.917969 235.476562 239.917969 236.230469 C 239.917969 236.980469 240.234375 237.667969 240.703125 238.136719 C 241.203125 238.636719 241.859375 238.917969 242.609375 238.917969 C 243.359375 238.917969 244.050781 238.605469 244.519531 238.136719 C 245.019531 237.636719 245.300781 236.980469 245.300781 236.230469 C 245.300781 235.476562 244.988281 234.789062 244.519531 234.320312 C 244.019531 233.820312 243.359375 233.539062 242.609375 233.539062 C 241.859375 233.539062 241.171875 233.851562 240.703125 234.320312 Z M 240.703125 234.320312 " fill-opacity="1" fill-rule="evenodd"/></g><path fill="#538641" d="M 54.144531 216.957031 C 35.3125 213.015625 23.453125 214.171875 18.542969 220.460938 C 34.96875 172.625 57.679688 152.445312 86.683594 159.984375 C 99.886719 167.179688 103.453125 174.597656 97.382812 182.199219 C 91 190.207031 77.109375 190.582031 67.785156 189.394531 C 54.332031 187.609375 45.355469 190.769531 40.878906 198.875 C 58.371094 189.925781 71.132812 199.6875 81.332031 197.839844 C 86.214844 196.964844 98.914062 186.765625 99.730469 198.1875 C 101.261719 219.992188 69.726562 221.929688 54.175781 216.988281 Z M 54.144531 216.957031 " fill-opacity="1" fill-rule="evenodd"/><path fill="#83cb13" d="M 140.398438 139.617188 C 134.207031 126.792969 132.921875 118.03125 136.550781 113.371094 C 105.046875 133.738281 94.597656 153.667969 105.203125 173.1875 C 112.742188 181.417969 118.71875 182.667969 123.097656 176.910156 C 127.730469 170.90625 125.507812 160.832031 123.003906 154.324219 C 119.3125 144.96875 120 137.929688 125.007812 133.269531 C 121.691406 147.441406 130.984375 154.917969 131.484375 162.550781 C 131.734375 166.210938 126.664062 177.191406 135.019531 175.722656 C 151.007812 172.9375 146.75 149.878906 140.398438 139.585938 Z M 140.398438 139.617188 " fill-opacity="1" fill-rule="evenodd"/><g clip-path="url(#f08fe5fea8)"><path fill="#83cb13" d="M 106.894531 240.078125 C 113.085938 252.902344 114.371094 261.664062 110.742188 266.324219 C 142.246094 245.957031 152.695312 226.03125 142.089844 206.507812 C 134.550781 198.28125 128.574219 197.027344 124.195312 202.785156 C 119.5625 208.792969 121.785156 218.867188 124.289062 225.371094 C 127.980469 234.726562 127.292969 241.765625 122.285156 246.429688 C 125.601562 232.253906 116.308594 224.777344 115.808594 217.144531 C 115.558594 213.484375 120.628906 202.503906 112.273438 203.972656 C 96.289062 206.757812 100.542969 229.816406 106.894531 240.109375 Z M 106.894531 240.078125 " fill-opacity="1" fill-rule="evenodd"/></g></svg>